<?xml version="1.0" encoding="UTF-8" standalone="no"?>
<!-- Created with Inkscape (http://www.inkscape.org/) -->
<svg
   xmlns:dc="http://purl.org/dc/elements/1.1/"
   xmlns:cc="http://creativecommons.org/ns#"
   xmlns:rdf="http://www.w3.org/1999/02/22-rdf-syntax-ns#"
   xmlns:svg="http://www.w3.org/2000/svg"
   xmlns="http://www.w3.org/2000/svg"
   xmlns:sodipodi="http://sodipodi.sourceforge.net/DTD/sodipodi-0.dtd"
   xmlns:inkscape="http://www.inkscape.org/namespaces/inkscape"
   width="96"
   height="40"
   id="svg3301"
   sodipodi:version="0.32"
   inkscape:version="0.46"
   version="1.0"
   sodipodi:docname="F1_Team_Icon_-_Red_Bull.svg"
   inkscape:output_extension="org.inkscape.output.svg.inkscape">
  <defs
     id="defs3303">
    <inkscape:perspective
       sodipodi:type="inkscape:persp3d"
       inkscape:vp_x="0 : 24 : 1"
       inkscape:vp_y="0 : 1000 : 0"
       inkscape:vp_z="48 : 24 : 1"
       inkscape:persp3d-origin="24 : 16 : 1"
       id="perspective3309" />
  </defs>
  <sodipodi:namedview
     id="base"
     pagecolor="#ffffff"
     bordercolor="#666666"
     borderopacity="1.0"
     inkscape:pageopacity="0.0"
     inkscape:pageshadow="2"
     inkscape:zoom="4.9497475"
     inkscape:cx="101.90249"
     inkscape:cy="19.683144"
     inkscape:current-layer="layer1"
     showgrid="true"
     inkscape:grid-bbox="true"
     inkscape:document-units="px"
     inkscape:window-width="1400"
     inkscape:window-height="972"
     inkscape:window-x="0"
     inkscape:window-y="27" />
  <metadata
     id="metadata3306">
    <rdf:RDF>
      <cc:Work
         rdf:about="">
        <dc:format>image/svg+xml</dc:format>
        <dc:type
           rdf:resource="http://purl.org/dc/dcmitype/StillImage" />
      </cc:Work>
    </rdf:RDF>
  </metadata>
  <g
     id="layer1"
     inkscape:label="Layer 1"
     inkscape:groupmode="layer"
     transform="translate(23.999999,-4.0000005)">
    <path
       style="fill:none;fill-rule:evenodd;stroke:#000000;stroke-width:1.48674226;stroke-linecap:butt;stroke-linejoin:round;stroke-miterlimit:4;stroke-dasharray:none;stroke-opacity:1"
       d="M 37.908022,33.825991 C 33.978109,34.918436 29.998099,36.075706 26.505835,36.448432 C 26.254144,37.434908 25.918946,38.201178 25.498047,38.600004 C 21.186008,42.685349 -4.0945556,39.056187 -6.904057,38.638604 C -7.4772264,40.121269 -8.2331546,41.331705 -9.1102782,42.151448 L -9.0932611,42.212736 L 42.65752,42.212736 L 41.840407,40.664475 L 38.027191,40.664475 C 37.410092,40.704748 37.124954,40.003206 37.210069,39.116105 L 37.908022,33.825991 z"
       id="path3233" />
    <path
       id="path3276"
       d="M 37.908022,33.825991 C 33.978109,34.918436 29.998099,36.075706 26.505835,36.448432 C 26.254144,37.434908 25.918946,38.201178 25.498047,38.600004 C 21.186008,42.685349 -4.0945556,39.056187 -6.904057,38.638604 C -7.4772264,40.121269 -8.2331546,41.331705 -9.1102782,42.151448 L -9.0932611,42.212736 L 42.65752,42.212736 L 41.840407,40.664475 L 38.027191,40.664475 C 37.410092,40.704748 37.124954,40.003206 37.210069,39.116105 L 37.908022,33.825991 z"
       style="fill:#1a1a1a;fill-rule:evenodd;stroke:#808080;stroke-width:0.5;stroke-linecap:butt;stroke-linejoin:round;stroke-miterlimit:4;stroke-dasharray:none;stroke-opacity:1" />
    <path
       sodipodi:type="arc"
       style="fill:#4d4d4d;fill-opacity:1;fill-rule:nonzero;stroke:#333333;stroke-width:44.91669845999999922;stroke-linejoin:round;marker:none;marker-start:none;marker-mid:none;marker-end:none;stroke-miterlimit:4;stroke-dasharray:none;stroke-opacity:1;visibility:visible;display:inline;overflow:visible;enable-background:accumulate"
       id="path5229"
       sodipodi:cx="45"
       sodipodi:cy="967.36218"
       sodipodi:rx="115"
       sodipodi:ry="115"
       d="M 160,967.36218 A 115,115 0 1 1 -70,967.36218 A 115,115 0 1 1 160,967.36218 z"
       transform="matrix(2.607325e-2,0,0,4.2020437e-2,48.582229,-8.7889996)" />
    <path
       style="fill:none;fill-rule:evenodd;stroke:#000000;stroke-width:1.48674226;stroke-linecap:butt;stroke-linejoin:round;stroke-miterlimit:4;stroke-dasharray:none;stroke-opacity:1"
       d="M 13.186818,4.7433716 L 9.9728188,5.5691655 L 10.371157,8.6657867 L 13.731555,8.6657867 L 13.731555,8.356103 L 13.186818,4.7433716 z"
       id="path2452" />
    <path
       id="path3264"
       d="M 13.186818,4.7433715 L 9.9728188,5.5691655 L 10.371157,8.6657865 L 13.731555,8.6657865 L 13.731555,8.3561035 L 13.186818,4.7433715 z"
       style="fill:#1a1a1a;fill-opacity:1;fill-rule:evenodd;stroke:#646464;stroke-width:0.5;stroke-linecap:butt;stroke-linejoin:round;stroke-miterlimit:4;stroke-dasharray:none;stroke-opacity:1" />
    <path
       style="fill:none;fill-opacity:1;fill-rule:evenodd;stroke:#000000;stroke-width:1.48674226;stroke-linecap:butt;stroke-linejoin:round;stroke-miterlimit:4;stroke-dasharray:none;stroke-opacity:1"
       d="M 4.2530048,8.6657867 C 0.037933389,9.1222645 -5.0022967,18.35895 -9.1681551,21.571682 C -7.5316158,23.060026 -6.3044824,25.907572 -5.8911729,29.339178 C -2.7116054,26.94539 5.6880596,21.052339 11.334679,21.052339 C 11.813662,21.052339 12.278213,21.055278 12.728894,21.062019 C 12.672231,21.06124 12.617453,21.059476 12.560363,21.058796 C 13.601727,20.526255 15.331518,19.709459 16.897881,19.278284 C 16.930863,18.40234 16.925469,17.42788 16.782128,16.923577 L 15.147895,16.923577 C 14.603157,16.923577 15.147895,15.220193 15.147895,13.826779 C 15.147895,11.762396 15.147895,11.053423 15.147895,8.6657867 L 4.2530048,8.6657867 z M 13.721333,21.081366 C 14.688143,21.106787 15.585941,21.14853 16.419543,21.20073 L 16.426348,21.197507 C 15.591146,21.145011 14.690785,21.105812 13.721333,21.081366 z"
       id="path2448" />
    <path
       id="path3266"
       d="M 4.2530048,8.665787 C 0.037933389,9.122264 -5.0022967,18.35895 -9.1681551,21.571682 C -7.5316158,23.060026 -6.3044824,25.907572 -5.8911729,29.339178 C -2.7116054,26.94539 5.6880596,21.052339 11.334679,21.052339 C 11.813662,21.052339 12.278213,21.055278 12.728894,21.062019 C 12.672231,21.06124 12.617453,21.059476 12.560363,21.058796 C 13.601727,20.526255 15.331518,19.709459 16.897881,19.278284 C 16.930863,18.40234 16.925469,17.42788 16.782128,16.923577 L 15.147895,16.923577 C 14.603157,16.923577 15.147895,15.220193 15.147895,13.826779 C 15.147895,11.762396 15.147895,11.053423 15.147895,8.665787 L 4.2530048,8.665787 z M 13.721333,21.081366 C 14.688143,21.106787 15.585941,21.14853 16.419543,21.20073 L 16.426348,21.197507 C 15.591146,21.145011 14.690785,21.105812 13.721333,21.081366 z"
       style="fill:#ffcc00;fill-opacity:1;fill-rule:evenodd;stroke:#f2f2f2;stroke-width:0.5;stroke-linecap:butt;stroke-linejoin:round;stroke-miterlimit:4;stroke-dasharray:none;stroke-opacity:1" />
    <path
       style="fill:#ff0000;fill-opacity:1;fill-rule:evenodd;stroke:#f2f2f2;stroke-width:0.50000000000000000;stroke-linecap:butt;stroke-linejoin:round;stroke-miterlimit:4;stroke-dasharray:none;stroke-opacity:1"
       d="M 26.873415,5.0993636 C 23.337881,10.954864 22.44108,15.382348 23.579918,21.302348 C 27.365175,18.859259 28.932844,18.14143 32.303838,17.497811 C 33.470424,16.385782 35.34375,14.181683 35.34375,12.625 C 35.34375,9.7045419 34.960858,6.9760464 34.28125,4.65625 C 30.845748,4.4197018 29.000882,4.4332639 26.873415,5.0993636 z"
       id="path2468"
       transform="translate(-23.999999,4.0000005)"
       sodipodi:nodetypes="cccscc" />
    <path
       style="fill:none;fill-opacity:1;fill-rule:evenodd;stroke:#000000;stroke-width:1.48674226;stroke-linecap:butt;stroke-linejoin:round;stroke-miterlimit:4;stroke-dasharray:none;stroke-opacity:1"
       d="M 47.557132,17.450815 L 47.557132,21.067174 L 47.83618,21.067174 L 47.83618,17.450815 L 47.557132,17.450815 z M 18.697916,18.996267 C 16.88293,18.994798 14.028269,20.315768 12.558643,21.067174 C 20.679805,21.169219 24.352502,22.261741 25.488312,23.107169 C 27.145931,24.341164 27.562866,32.33953 26.511528,36.459895 C 31.53175,35.924022 37.563526,33.756009 42.999183,32.503533 C 42.993571,32.301395 42.975929,32.090129 42.975929,31.88535 C 42.975929,27.192682 44.468351,23.170094 46.603683,21.407176 C 44.350007,21.178238 42.060767,21.067549 39.650487,21.036264 L 39.650487,18.996267 L 39.394694,18.996267 L 39.394694,21.036264 C 36.623846,21.005374 33.684228,21.067174 30.441588,21.067174 C 29.828364,21.067174 29.592647,21.068051 29.488141,21.067174 C 29.551341,20.924944 29.581164,20.756524 29.581164,20.54172 C 29.569968,19.312131 27.674267,19.490811 27.674267,19.490811 L 27.674267,21.561718 C 27.674267,21.561718 28.417955,21.757646 28.976533,21.530808 C 28.966291,21.535076 28.963658,21.557745 28.953277,21.561718 C 27.665823,22.939303 25.053465,22.087172 23.325621,22.087172 C 21.146629,22.087172 20.33214,18.996267 18.697916,18.996267 z M 52.324361,22.334444 C 53.965549,24.379762 55.045172,27.887877 55.045172,31.88535 C 55.045172,32.231098 55.037801,32.567425 55.021915,32.905347 C 57.896396,33.985973 60.932366,34.192429 63.905253,33.956256 C 64.032449,33.946094 64.11086,34.455244 64.184313,34.976263 L 65.81215,34.976263 C 65.916865,34.441071 66.002567,33.931515 66.044697,33.925355 C 69.785275,33.370035 72.10403,31.917965 70.160794,30.339898 C 63.180797,25.876148 57.629307,23.55045 52.324361,22.334444 z"
       id="path3228" />
    <path
       id="path3270"
       d="M 47.557132,17.450815 L 47.557132,21.067174 L 47.83618,21.067174 L 47.83618,17.450815 L 47.557132,17.450815 z M 18.697916,18.996267 C 16.88293,18.994798 14.028269,20.315768 12.558643,21.067174 C 20.679805,21.169219 24.352502,22.261741 25.488312,23.107169 C 27.145931,24.341164 27.562866,32.33953 26.511528,36.459895 C 31.53175,35.924022 37.563526,33.756009 42.999183,32.503533 C 42.993571,32.301395 42.975929,32.090129 42.975929,31.88535 C 42.975929,27.192682 44.468351,23.170094 46.603683,21.407176 C 44.350007,21.178238 42.060767,21.067549 39.650487,21.036264 L 39.650487,18.996267 L 39.394694,18.996267 L 39.394694,21.036264 C 36.623846,21.005374 33.684228,21.067174 30.441588,21.067174 C 29.828364,21.067174 29.592647,21.068051 29.488141,21.067174 C 29.551341,20.924944 29.581164,20.756524 29.581164,20.54172 C 29.569968,19.312131 27.674267,19.490811 27.674267,19.490811 L 27.674267,21.561718 C 27.674267,21.561718 28.417955,21.757646 28.976533,21.530808 C 28.966291,21.535076 28.963658,21.557745 28.953277,21.561718 C 27.665823,22.939303 25.053465,22.087172 23.325621,22.087172 C 21.146629,22.087172 20.33214,18.996267 18.697916,18.996267 z M 52.324361,22.334444 C 53.965549,24.379762 55.045172,27.887877 55.045172,31.88535 C 55.045172,32.231098 55.037801,32.567425 55.021915,32.905347 C 57.896396,33.985973 60.932366,34.192429 63.905253,33.956256 C 64.032449,33.946094 64.11086,34.455244 64.184313,34.976263 L 65.81215,34.976263 C 65.916865,34.441071 66.002567,33.931515 66.044697,33.925355 C 69.785275,33.370035 72.10403,31.917965 70.160794,30.339898 C 63.180797,25.876148 57.629307,23.55045 52.324361,22.334444 z"
       style="fill:#000080;fill-opacity:1;fill-rule:evenodd;stroke:#f2f2f2;stroke-width:0.50000000000000000;stroke-linecap:butt;stroke-linejoin:round;stroke-miterlimit:4;stroke-dasharray:none;stroke-opacity:1" />
    <path
       sodipodi:nodetypes="cssscczssc"
       id="path5231"
       d="M 49.755108,20.462958 C 45.307905,20.462958 41.698975,25.570872 41.698975,31.86145 C 41.698975,38.151928 45.307905,43.256628 49.755108,43.256628 C 54.20232,43.256628 57.81124,38.151928 57.81124,31.86145 C 57.81124,25.570872 54.20232,20.462958 49.755108,20.462958 z M 49.755108,26.330205 C 51.8927,26.330205 53.310498,29.137093 53.310498,31.811666 C 53.310498,34.436465 51.8927,37.29303 49.755108,37.29303 C 47.2663,37.29303 46.049192,34.539727 46.049192,31.86145 C 46.049192,28.987777 47.567349,26.330205 49.755108,26.330205 z"
       style="fill:none;fill-opacity:1;fill-rule:nonzero;stroke:#000000;stroke-width:1.48674226;stroke-linejoin:round;marker:none;marker-start:none;marker-mid:none;marker-end:none;stroke-miterlimit:4;stroke-dasharray:none;stroke-opacity:1;visibility:visible;display:inline;overflow:visible;enable-background:accumulate" />
    <path
       style="fill:#000080;fill-opacity:1;fill-rule:evenodd;stroke:#f2f2f2;stroke-width:0.50000000000000000;stroke-linecap:butt;stroke-linejoin:round;stroke-miterlimit:4;stroke-dasharray:none;stroke-opacity:1"
       d="M 4.250001,8.65625 C 3.830848,8.701643 3.402553,8.858017 2.968751,9.0625 C 3.598804,8.870347 4.209396,8.744714 4.843751,8.65625 L 4.250001,8.65625 z M -0.562499,25.09375 C -1.699762,19.181939 -0.648772,14.967904 2.875001,9.125 C -1.029504,11.058752 -5.435966,18.693399 -9.156249,21.5625 C -7.51971,23.050845 -6.319559,25.912145 -5.906249,29.34375 C 0.72794948,26.103074 -1.6713105,25.738155 -0.562499,25.09375 z"
       id="path2481"
       sodipodi:nodetypes="ccccccccc" />
    <path
       style="opacity:1;fill:none;fill-opacity:1;fill-rule:evenodd;stroke:#000000;stroke-width:1.48674226;stroke-linecap:butt;stroke-linejoin:round;stroke-miterlimit:4;stroke-dasharray:none;stroke-opacity:1"
       d="M 11.334679,21.052339 C 5.6880596,21.052339 -2.7116054,26.94539 -5.8911729,29.339178 C -5.7922986,30.160084 -5.7396676,31.013239 -5.7396676,31.890642 C -5.7396676,34.413866 -6.1726962,36.746751 -6.904057,38.638604 C -4.0945556,39.056187 21.186008,42.685349 25.498047,38.600004 C 27.67704,36.535524 27.552485,24.646107 25.498047,23.11672 C 24.306428,22.229729 20.318093,21.052339 11.334679,21.052339 z"
       id="path2446" />
    <path
       id="path3278"
       d="M 11.334679,21.052339 C 5.6880596,21.052339 -2.7116054,26.94539 -5.8911729,29.339178 C -5.7922986,30.160084 -5.7396676,31.013239 -5.7396676,31.890642 C -5.7396676,34.413866 -6.1726962,36.746751 -6.904057,38.638604 C -4.0945556,39.056187 21.186008,42.685349 25.498047,38.600004 C 27.67704,36.535524 27.552485,24.646107 25.498047,23.11672 C 24.306428,22.229729 20.318093,21.052339 11.334679,21.052339 z"
       style="opacity:1;fill:#000080;fill-opacity:1;fill-rule:evenodd;stroke:#f2f2f2;stroke-width:0.50000000000000000;stroke-linecap:butt;stroke-linejoin:round;stroke-miterlimit:4;stroke-dasharray:none;stroke-opacity:1" />
    <path
       style="fill:none;fill-opacity:1;fill-rule:evenodd;stroke:#000000;stroke-width:1.48674226;stroke-linecap:butt;stroke-linejoin:round;stroke-miterlimit:4;stroke-dasharray:none;stroke-opacity:1"
       d="M -18.626301,8.1496667 C -18.626301,11.267499 -19.988151,14.342889 -21.894758,14.342889 C -22.711881,14.342889 -23.211498,14.342889 -23.256628,14.342889 L -23.256628,33.955023 L -17.710434,33.955023 C -17.775035,33.284855 -17.809168,32.595801 -17.809168,31.890642 C -17.809168,25.703865 -15.211574,20.657436 -11.971893,20.458708 C -11.387221,18.618178 -10.999859,16.988984 -10.999859,15.891249 L -10.999859,8.1496667 L -18.626301,8.1496667 z"
       id="path2442" />
    <path
       id="path3262"
       d="M -18.626301,8.1496665 C -18.626301,11.267499 -19.988151,14.342889 -21.894758,14.342889 C -22.711881,14.342889 -23.211498,14.342889 -23.256628,14.342889 L -23.256628,33.955023 L -17.710434,33.955023 C -17.775035,33.284855 -17.809168,32.595801 -17.809168,31.890642 C -17.809168,25.703865 -15.211574,20.657436 -11.971893,20.458708 C -11.387221,18.618178 -10.999859,16.988984 -10.999859,15.891249 L -10.999859,8.1496665 L -18.626301,8.1496665 z"
       style="fill:#000080;fill-opacity:1;fill-rule:evenodd;stroke:#f2f2f2;stroke-width:0.50000000000000000;stroke-linecap:butt;stroke-linejoin:round;stroke-miterlimit:4;stroke-dasharray:none;stroke-opacity:1" />
    <path
       transform="matrix(2.607325e-2,0,0,4.2020437e-2,-13.00938,-8.7889996)"
       d="M 160,967.36218 A 115,115 0 1 1 -70,967.36218 A 115,115 0 1 1 160,967.36218 z"
       sodipodi:ry="115"
       sodipodi:rx="115"
       sodipodi:cy="967.36218"
       sodipodi:cx="45"
       id="path2406"
       style="fill:#4d4d4d;fill-opacity:1;fill-rule:nonzero;stroke:#333333;stroke-width:44.91669845999999922;stroke-linejoin:round;marker:none;marker-start:none;marker-mid:none;marker-end:none;stroke-miterlimit:4;stroke-dasharray:none;stroke-opacity:1;visibility:visible;display:inline;overflow:visible;enable-background:accumulate"
       sodipodi:type="arc" />
    <path
       style="fill:none;fill-opacity:1;fill-rule:nonzero;stroke:#000000;stroke-width:1.48674226;stroke-linejoin:round;marker:none;marker-start:none;marker-mid:none;marker-end:none;stroke-miterlimit:4;stroke-dasharray:none;stroke-opacity:1;visibility:visible;display:inline;overflow:visible;enable-background:accumulate"
       d="M -11.836502,20.462958 C -16.283704,20.462958 -19.892634,25.570872 -19.892634,31.86145 C -19.892634,38.151928 -16.283704,43.256628 -11.836502,43.256628 C -7.3892895,43.256628 -3.7803689,38.151928 -3.7803689,31.86145 C -3.7803689,25.570872 -7.3892895,20.462958 -11.836502,20.462958 z M -11.836502,26.330205 C -9.6989084,26.330205 -8.2811109,29.137093 -8.2811109,31.811666 C -8.2811109,34.436465 -9.6989084,37.29303 -11.836502,37.29303 C -14.325308,37.29303 -15.542416,34.539727 -15.542416,31.86145 C -15.542416,28.987777 -14.024259,26.330205 -11.836502,26.330205 z"
       id="path2404"
       sodipodi:nodetypes="cssscczssc" />
    <path
       style="fill:none;fill-opacity:1;fill-rule:evenodd;stroke:#000000;stroke-width:1.48674226;stroke-linecap:butt;stroke-linejoin:round;stroke-miterlimit:4;stroke-dasharray:none;stroke-opacity:1"
       d="M 71.256628,34.985893 L 71.256628,40.837644 L 59.544617,40.837644 L 59.544617,34.985893 L 71.256628,34.985893 z"
       id="path3235"
       sodipodi:nodetypes="ccccc" />
    <path
       sodipodi:nodetypes="cssscczssc"
       id="path3268"
       d="M -11.836502,20.462958 C -16.283704,20.462958 -19.892634,25.570872 -19.892634,31.86145 C -19.892634,38.151928 -16.283704,43.256628 -11.836502,43.256628 C -7.3892895,43.256628 -3.7803689,38.151928 -3.7803689,31.86145 C -3.7803689,25.570872 -7.3892895,20.462958 -11.836502,20.462958 z M -11.836502,26.330205 C -9.6989084,26.330205 -8.2811109,29.137093 -8.2811109,31.811666 C -8.2811109,34.436465 -9.6989084,37.29303 -11.836502,37.29303 C -14.325308,37.29303 -15.542416,34.539727 -15.542416,31.86145 C -15.542416,28.987777 -14.024259,26.330205 -11.836502,26.330205 z"
       style="fill:#333333;fill-opacity:1;fill-rule:nonzero;stroke:#cccccc;stroke-width:0.50000000000000000;stroke-linejoin:round;marker:none;marker-start:none;marker-mid:none;marker-end:none;stroke-miterlimit:4;stroke-dasharray:none;stroke-opacity:1;visibility:visible;display:inline;overflow:visible;enable-background:accumulate" />
    <path
       sodipodi:nodetypes="ccccc"
       id="path3272"
       d="M 71.256628,34.985893 L 71.256628,40.837644 L 59.544617,40.837644 L 59.544617,34.985893 L 71.256628,34.985893 z"
       style="fill:#000080;fill-opacity:1;fill-rule:evenodd;stroke:#f2f2f2;stroke-width:0.50000000000000000;stroke-linecap:butt;stroke-linejoin:round;stroke-miterlimit:4;stroke-dasharray:none;stroke-opacity:1" />
    <path
       style="fill:#333333;fill-opacity:1;fill-rule:nonzero;stroke:#cccccc;stroke-width:0.50000000000000000;stroke-linejoin:round;marker:none;marker-start:none;marker-mid:none;marker-end:none;stroke-miterlimit:4;stroke-dasharray:none;stroke-opacity:1;visibility:visible;display:inline;overflow:visible;enable-background:accumulate"
       d="M 49.755108,20.462958 C 45.307905,20.462958 41.698975,25.570872 41.698975,31.86145 C 41.698975,38.151928 45.307905,43.256628 49.755108,43.256628 C 54.20232,43.256628 57.81124,38.151928 57.81124,31.86145 C 57.81124,25.570872 54.20232,20.462958 49.755108,20.462958 z M 49.755108,26.330205 C 51.8927,26.330205 53.310498,29.137093 53.310498,31.811666 C 53.310498,34.436465 51.8927,37.29303 49.755108,37.29303 C 47.2663,37.29303 46.049192,34.539727 46.049192,31.86145 C 46.049192,28.987777 47.567349,26.330205 49.755108,26.330205 z"
       id="path3274"
       sodipodi:nodetypes="cssscczssc" />
    <path
       style="fill:#ffcc00;fill-rule:evenodd;stroke:#ffffff;stroke-width:0.50000000000000000;stroke-linecap:butt;stroke-linejoin:miter;stroke-opacity:1"
       d="M 86.53125 22 C 86.880055 24.193273 88.179252 27.524783 92.71875 29.28125 C 94.715389 28.563329 95.567514 27.489812 94.15625 26.34375 C 91.414211 24.590199 88.904038 23.155985 86.53125 22 z "
       transform="translate(-23.999999,4.0000005)"
       id="path2435" />
  </g>
</svg>
